<svg width="604" height="206" viewBox="0 0 604 206" fill="none" xmlns="http://www.w3.org/2000/svg">
<g filter="url(#filter0_d_33_9)">
<path d="M52.6873 49.44H57.3073V148H52.6873V49.44ZM118.207 49.44L61.0873 97.88V95.64L119.747 148H112.887L55.4873 96.9L111.487 49.44H118.207ZM134.136 148V77.44H138.756V148H134.136ZM136.376 51.82C137.682 51.82 138.756 52.2867 139.596 53.22C140.436 54.06 140.856 55.1333 140.856 56.44C140.856 57.6533 140.436 58.7267 139.596 59.66C138.756 60.5 137.682 60.92 136.376 60.92C135.069 60.92 133.996 60.5 133.156 59.66C132.316 58.7267 131.896 57.6533 131.896 56.44C131.896 55.1333 132.316 54.06 133.156 53.22C133.996 52.2867 135.069 51.82 136.376 51.82ZM189.186 81.64H152.786V77.44H189.186V81.64ZM170.566 128.54C170.566 133.86 171.826 137.733 174.346 140.16C176.866 142.587 180.32 143.8 184.706 143.8H189.186V148H184.286C178.5 148 174.02 146.413 170.846 143.24C167.673 140.067 166.086 135.213 166.086 128.68V58.68H170.566V128.54ZM252.38 100.54C252.38 96.2467 251.493 92.6067 249.72 89.62C248.04 86.54 245.613 84.2533 242.44 82.76C239.267 81.2667 235.58 80.52 231.38 80.52C225.687 80.52 220.927 81.8267 217.1 84.44C213.273 87.0533 210.707 90.5533 209.4 94.94H204.78C206.273 89.34 209.4 84.86 214.16 81.5C218.92 78.0467 224.66 76.32 231.38 76.32C236.513 76.32 240.993 77.2533 244.82 79.12C248.647 80.8933 251.587 83.6467 253.64 87.38C255.787 91.02 256.86 95.4067 256.86 100.54V148H252.66V132.74L253.36 133.72C251.12 138.387 247.573 142.12 242.72 144.92C237.867 147.72 232.173 149.12 225.64 149.12C221.253 149.12 217.24 148.327 213.6 146.74C210.053 145.06 207.207 142.68 205.06 139.6C203.007 136.52 201.98 132.927 201.98 128.82C201.98 122.567 204.313 117.62 208.98 113.98C213.74 110.247 220.367 108.38 228.86 108.38H254.48V112.58H229C221.813 112.58 216.26 114.027 212.34 116.92C208.513 119.72 206.6 123.687 206.6 128.82C206.6 133.673 208.42 137.593 212.06 140.58C215.7 143.473 220.367 144.92 226.06 144.92C231.193 144.92 235.767 143.987 239.78 142.12C243.793 140.16 246.873 137.453 249.02 134C251.26 130.547 252.38 126.673 252.38 122.38V100.54ZM332.808 109.22L331.548 110.62V109.5C331.548 100.26 329.261 93.12 324.688 88.08C320.208 83.04 314.094 80.52 306.348 80.52C301.214 80.52 296.641 81.78 292.628 84.3C288.708 86.82 285.628 90.4133 283.388 95.08C281.148 99.7467 280.028 105.113 280.028 111.18C280.028 111.647 280.028 112.113 280.028 112.58C280.028 113.047 280.028 113.513 280.028 113.98C280.028 120.327 281.194 125.833 283.528 130.5C285.954 135.167 289.174 138.76 293.188 141.28C297.294 143.707 301.868 144.92 306.908 144.92C313.161 144.92 318.248 143.52 322.168 140.72C326.181 137.827 328.888 134.327 330.288 130.22H335.048C334.021 133.58 332.294 136.707 329.868 139.6C327.441 142.493 324.314 144.827 320.488 146.6C316.661 148.28 312.134 149.12 306.908 149.12C300.934 149.12 295.568 147.72 290.808 144.92C286.048 142.12 282.268 137.967 279.468 132.46C276.668 126.953 275.268 120.373 275.268 112.72C275.268 105.347 276.621 98.9067 279.328 93.4C282.034 87.8933 285.721 83.6933 290.388 80.8C295.148 77.8133 300.468 76.32 306.348 76.32C312.228 76.32 317.408 77.6733 321.888 80.38C326.368 82.9933 329.868 86.8667 332.388 92C334.908 97.04 336.168 103.107 336.168 110.2V113.42H277.928V109.22H332.808ZM348.832 81.64V77.44H402.032V81.36L353.032 145.48L352.192 143.8H402.032V148H348.692V144.08L397.692 79.96L398.392 81.64H348.832ZM446.1 76.32C452.354 76.32 457.907 77.86 462.76 80.94C467.707 83.9267 471.487 88.1733 474.1 93.68C476.807 99.1867 478.16 105.533 478.16 112.72C478.16 119.907 476.807 126.253 474.1 131.76C471.487 137.267 467.707 141.56 462.76 144.64C457.907 147.627 452.354 149.12 446.1 149.12C439.847 149.12 434.247 147.627 429.3 144.64C424.447 141.56 420.667 137.267 417.96 131.76C415.254 126.253 413.9 119.907 413.9 112.72C413.9 105.533 415.254 99.1867 417.96 93.68C420.667 88.1733 424.447 83.9267 429.3 80.94C434.247 77.86 439.847 76.32 446.1 76.32ZM446.1 144.92C451.514 144.92 456.274 143.613 460.38 141C464.58 138.293 467.8 134.513 470.04 129.66C472.374 124.807 473.54 119.16 473.54 112.72C473.54 106.28 472.374 100.633 470.04 95.78C467.8 90.9267 464.58 87.1933 460.38 84.58C456.274 81.8733 451.514 80.52 446.1 80.52C440.687 80.52 435.88 81.8733 431.68 84.58C427.574 87.1933 424.354 90.9267 422.02 95.78C419.687 100.633 418.52 106.28 418.52 112.72C418.52 119.16 419.687 124.807 422.02 129.66C424.354 134.513 427.574 138.293 431.68 141C435.88 143.613 440.687 144.92 446.1 144.92ZM516.884 148L487.904 77.44H492.944L520.244 144.36H518.284L545.724 77.44H550.764L521.644 148H516.884Z" fill="url(#paint0_angular_33_9)"/>
</g>
<defs>
<filter id="filter0_d_33_9" x="0.187256" y="0.939941" width="603.076" height="204.68" filterUnits="userSpaceOnUse" color-interpolation-filters="sRGB">
<feFlood flood-opacity="0" result="BackgroundImageFix"/>
<feColorMatrix in="SourceAlpha" type="matrix" values="0 0 0 0 0 0 0 0 0 0 0 0 0 0 0 0 0 0 127 0" result="hardAlpha"/>
<feOffset dy="4"/>
<feGaussianBlur stdDeviation="26.25"/>
<feComposite in2="hardAlpha" operator="out"/>
<feColorMatrix type="matrix" values="0 0 0 0 1 0 0 0 0 1 0 0 0 0 1 0 0 0 0.25 0"/>
<feBlend mode="darken" in2="BackgroundImageFix" result="effect1_dropShadow_33_9"/>
<feBlend mode="normal" in="SourceGraphic" in2="effect1_dropShadow_33_9" result="shape"/>
</filter>
<radialGradient id="paint0_angular_33_9" cx="0" cy="0" r="1" gradientUnits="userSpaceOnUse" gradientTransform="translate(278.524 163.625) rotate(51.2224) scale(28.7012 97.9531)">
<stop/>
<stop offset="0.82" stop-color="#FEAAAA"/>
</radialGradient>
</defs>
</svg>
