<svg width="243" height="55" viewBox="0 0 243 55" fill="none" xmlns="http://www.w3.org/2000/svg">
<g filter="url(#filter0_d_158_9)">
<path d="M4.76914 37V0.649997H6.41914V37H4.76914ZM31.1301 20.05C31.1301 18.5167 30.8134 17.2167 30.1801 16.15C29.5801 15.05 28.7134 14.2333 27.5801 13.7C26.4467 13.1667 25.1301 12.9 23.6301 12.9C21.5967 12.9 19.8967 13.3667 18.5301 14.3C17.1634 15.2333 16.2467 16.4833 15.7801 18.05H14.1301C14.6634 16.05 15.7801 14.45 17.4801 13.25C19.1801 12.0167 21.2301 11.4 23.6301 11.4C25.4634 11.4 27.0634 11.7333 28.4301 12.4C29.7967 13.0333 30.8467 14.0167 31.5801 15.35C32.3467 16.65 32.7301 18.2167 32.7301 20.05V37H31.2301V31.55L31.4801 31.9C30.6801 33.5667 29.4134 34.9 27.6801 35.9C25.9467 36.9 23.9134 37.4 21.5801 37.4C20.0134 37.4 18.5801 37.1167 17.2801 36.55C16.0134 35.95 14.9967 35.1 14.2301 34C13.4967 32.9 13.1301 31.6167 13.1301 30.15C13.1301 27.9167 13.9634 26.15 15.6301 24.85C17.3301 23.5167 19.6967 22.85 22.7301 22.85H31.8801V24.35H22.7801C20.2134 24.35 18.2301 24.8667 16.8301 25.9C15.4634 26.9 14.7801 28.3167 14.7801 30.15C14.7801 31.8833 15.4301 33.2833 16.7301 34.35C18.0301 35.3833 19.6967 35.9 21.7301 35.9C23.5634 35.9 25.1967 35.5667 26.6301 34.9C28.0634 34.2 29.1634 33.2333 29.9301 32C30.7301 30.7667 31.1301 29.3833 31.1301 27.85V20.05ZM40.8043 30.1C41.3376 32 42.3376 33.45 43.8043 34.45C45.3043 35.4167 47.221 35.9 49.5543 35.9C51.6876 35.9 53.4376 35.3833 54.8043 34.35C56.171 33.3167 56.8543 31.95 56.8543 30.25C56.8543 28.85 56.4043 27.7667 55.5043 27C54.6043 26.2 53.271 25.6833 51.5043 25.45L46.6543 24.85C44.5876 24.5833 42.9376 23.9333 41.7043 22.9C40.5043 21.8333 39.9043 20.3833 39.9043 18.55C39.9043 17.2167 40.271 16.0167 41.0043 14.95C41.771 13.85 42.821 12.9833 44.1543 12.35C45.521 11.7167 47.0376 11.4 48.7043 11.4C50.3043 11.4 51.7543 11.6833 53.0543 12.25C54.3876 12.8167 55.471 13.6167 56.3043 14.65C57.1376 15.6833 57.6376 16.8667 57.8043 18.2H56.2043C55.871 16.6 55.0376 15.3167 53.7043 14.35C52.4043 13.3833 50.7376 12.9 48.7043 12.9C46.571 12.9 44.8376 13.4333 43.5043 14.5C42.2043 15.5333 41.5543 16.85 41.5543 18.45C41.5543 19.8167 42.021 20.9167 42.9543 21.75C43.921 22.55 45.2376 23.0667 46.9043 23.3L51.8543 23.95C53.9876 24.2167 55.621 24.8667 56.7543 25.9C57.921 26.9333 58.5043 28.35 58.5043 30.15C58.5043 31.5833 58.1043 32.85 57.3043 33.95C56.5376 35.05 55.471 35.9 54.1043 36.5C52.7376 37.1 51.2376 37.4 49.6043 37.4C47.8376 37.4 46.2376 37.15 44.8043 36.65C43.371 36.1167 42.1543 35.3 41.1543 34.2C40.1876 33.1 39.5376 31.7333 39.2043 30.1H40.8043ZM74.723 13.3H61.723V11.8H74.723V13.3ZM68.073 30.05C68.073 31.95 68.523 33.3333 69.423 34.2C70.323 35.0667 71.5564 35.5 73.123 35.5H74.723V37H72.973C70.9064 37 69.3064 36.4333 68.173 35.3C67.0397 34.1667 66.473 32.4333 66.473 30.1V5.1H68.073V30.05ZM103.079 11.4C105.179 11.4 107.079 11.9167 108.779 12.95C110.479 13.9833 111.812 15.4833 112.779 17.45C113.745 19.4167 114.229 21.7333 114.229 24.4C114.229 27.0333 113.745 29.3333 112.779 31.3C111.845 33.2667 110.529 34.7833 108.829 35.85C107.129 36.8833 105.212 37.4 103.079 37.4C101.512 37.4 100.079 37.1333 98.7785 36.6C97.4785 36.0333 96.3618 35.25 95.4285 34.25C94.4952 33.25 93.7618 32.0667 93.2285 30.7L93.5285 30.55V46.55H91.8785V11.8H93.4285V18.5L93.0785 18.6C93.5452 17.1333 94.2618 15.8667 95.2285 14.8C96.1952 13.7 97.3452 12.8667 98.6785 12.3C100.012 11.7 101.479 11.4 103.079 11.4ZM102.979 35.9C104.912 35.9 106.595 35.4333 108.029 34.5C109.495 33.5333 110.612 32.1833 111.379 30.45C112.179 28.7167 112.579 26.7 112.579 24.4C112.579 22.1 112.179 20.0833 111.379 18.35C110.579 16.6167 109.445 15.2833 107.979 14.35C106.545 13.3833 104.879 12.9 102.979 12.9C101.145 12.9 99.4952 13.3667 98.0285 14.3C96.5952 15.2 95.4618 16.4833 94.6285 18.15C93.8285 19.8167 93.4285 21.7333 93.4285 23.9V24.9C93.4285 27 93.8285 28.8833 94.6285 30.55C95.4285 32.2167 96.5452 33.5333 97.9785 34.5C99.4118 35.4333 101.079 35.9 102.979 35.9ZM132.129 13.3H131.129C129.529 13.3 128.096 13.65 126.829 14.35C125.562 15.0167 124.546 16.0333 123.779 17.4C123.046 18.7333 122.679 20.3833 122.679 22.35V37H121.029V11.8H122.579V17.75L122.329 17.45C123.062 15.5833 124.196 14.1667 125.729 13.2C127.262 12.2333 129.062 11.75 131.129 11.75H132.129V13.3ZM146.752 11.4C148.985 11.4 150.968 11.95 152.702 13.05C154.468 14.1167 155.818 15.6333 156.752 17.6C157.718 19.5667 158.202 21.8333 158.202 24.4C158.202 26.9667 157.718 29.2333 156.752 31.2C155.818 33.1667 154.468 34.7 152.702 35.8C150.968 36.8667 148.985 37.4 146.752 37.4C144.518 37.4 142.518 36.8667 140.752 35.8C139.018 34.7 137.668 33.1667 136.702 31.2C135.735 29.2333 135.252 26.9667 135.252 24.4C135.252 21.8333 135.735 19.5667 136.702 17.6C137.668 15.6333 139.018 14.1167 140.752 13.05C142.518 11.95 144.518 11.4 146.752 11.4ZM146.752 35.9C148.685 35.9 150.385 35.4333 151.852 34.5C153.352 33.5333 154.502 32.1833 155.302 30.45C156.135 28.7167 156.552 26.7 156.552 24.4C156.552 22.1 156.135 20.0833 155.302 18.35C154.502 16.6167 153.352 15.2833 151.852 14.35C150.385 13.3833 148.685 12.9 146.752 12.9C144.818 12.9 143.102 13.3833 141.602 14.35C140.135 15.2833 138.985 16.6167 138.152 18.35C137.318 20.0833 136.902 22.1 136.902 24.4C136.902 26.7 137.318 28.7167 138.152 30.45C138.985 32.1833 140.135 33.5333 141.602 34.5C143.102 35.4333 144.818 35.9 146.752 35.9ZM160.073 45.05C161.706 45.05 162.94 44.5833 163.773 43.65C164.64 42.75 165.073 41.35 165.073 39.45V11.8H166.723V39.5C166.723 41.0333 166.473 42.3167 165.973 43.35C165.473 44.4167 164.74 45.2167 163.773 45.75C162.806 46.2833 161.606 46.55 160.173 46.55H159.323V45.05H160.073ZM165.873 2.65C166.34 2.65 166.723 2.81666 167.023 3.15C167.323 3.45 167.473 3.83333 167.473 4.3C167.473 4.73333 167.323 5.11666 167.023 5.45C166.723 5.75 166.34 5.9 165.873 5.9C165.406 5.9 165.023 5.75 164.723 5.45C164.423 5.11666 164.273 4.73333 164.273 4.3C164.273 3.83333 164.423 3.45 164.723 3.15C165.023 2.81666 165.406 2.65 165.873 2.65ZM194.083 23.15L193.633 23.65V23.25C193.633 19.95 192.816 17.4 191.183 15.6C189.583 13.8 187.399 12.9 184.633 12.9C182.799 12.9 181.166 13.35 179.733 14.25C178.333 15.15 177.233 16.4333 176.433 18.1C175.633 19.7667 175.233 21.6833 175.233 23.85C175.233 24.0167 175.233 24.1833 175.233 24.35C175.233 24.5167 175.233 24.6833 175.233 24.85C175.233 27.1167 175.649 29.0833 176.483 30.75C177.349 32.4167 178.499 33.7 179.933 34.6C181.399 35.4667 183.033 35.9 184.833 35.9C187.066 35.9 188.883 35.4 190.283 34.4C191.716 33.3667 192.683 32.1167 193.183 30.65H194.883C194.516 31.85 193.899 32.9667 193.033 34C192.166 35.0333 191.049 35.8667 189.683 36.5C188.316 37.1 186.699 37.4 184.833 37.4C182.699 37.4 180.783 36.9 179.083 35.9C177.383 34.9 176.033 33.4167 175.033 31.45C174.033 29.4833 173.533 27.1333 173.533 24.4C173.533 21.7667 174.016 19.4667 174.983 17.5C175.949 15.5333 177.266 14.0333 178.933 13C180.633 11.9333 182.533 11.4 184.633 11.4C186.733 11.4 188.583 11.8833 190.183 12.85C191.783 13.7833 193.033 15.1667 193.933 17C194.833 18.8 195.283 20.9667 195.283 23.5V24.65H174.483V23.15H194.083ZM211.982 35.9C213.682 35.9 215.132 35.5833 216.332 34.95C217.566 34.2833 218.532 33.45 219.232 32.45C219.966 31.45 220.466 30.4 220.732 29.3H222.332C222.099 30.7333 221.532 32.0667 220.632 33.3C219.732 34.5333 218.532 35.5333 217.032 36.3C215.566 37.0333 213.882 37.4 211.982 37.4C209.949 37.4 208.066 36.8833 206.332 35.85C204.599 34.8167 203.216 33.3167 202.182 31.35C201.149 29.3833 200.632 27.0667 200.632 24.4C200.632 21.7333 201.132 19.4167 202.132 17.45C203.166 15.4833 204.532 13.9833 206.232 12.95C207.966 11.9167 209.882 11.4 211.982 11.4C213.782 11.4 215.416 11.75 216.882 12.45C218.349 13.15 219.532 14.1167 220.432 15.35C221.366 16.55 221.999 17.8833 222.332 19.35H220.732C220.199 17.4833 219.166 15.95 217.632 14.75C216.132 13.5167 214.249 12.9 211.982 12.9C210.182 12.9 208.549 13.3667 207.082 14.3C205.616 15.2333 204.449 16.5667 203.582 18.3C202.716 20.0333 202.282 22.0667 202.282 24.4C202.282 26.8 202.716 28.8667 203.582 30.6C204.482 32.3 205.666 33.6167 207.132 34.55C208.599 35.45 210.216 35.9 211.982 35.9ZM238.981 13.3H225.981V11.8H238.981V13.3ZM232.331 30.05C232.331 31.95 232.781 33.3333 233.681 34.2C234.581 35.0667 235.814 35.5 237.381 35.5H238.981V37H237.231C235.164 37 233.564 36.4333 232.431 35.3C231.298 34.1667 230.731 32.4333 230.731 30.1V5.1H232.331V30.05Z" fill="url(#paint0_angular_158_9)"/>
</g>
<defs>
<filter id="filter0_d_158_9" x="0.769043" y="0.650391" width="242.212" height="53.8994" filterUnits="userSpaceOnUse" color-interpolation-filters="sRGB">
<feFlood flood-opacity="0" result="BackgroundImageFix"/>
<feColorMatrix in="SourceAlpha" type="matrix" values="0 0 0 0 0 0 0 0 0 0 0 0 0 0 0 0 0 0 127 0" result="hardAlpha"/>
<feOffset dy="4"/>
<feGaussianBlur stdDeviation="2"/>
<feComposite in2="hardAlpha" operator="out"/>
<feColorMatrix type="matrix" values="0 0 0 0 0 0 0 0 0 0 0 0 0 0 0 0 0 0 0.25 0"/>
<feBlend mode="normal" in2="BackgroundImageFix" result="effect1_dropShadow_158_9"/>
<feBlend mode="normal" in="SourceGraphic" in2="effect1_dropShadow_158_9" result="shape"/>
</filter>
<radialGradient id="paint0_angular_158_9" cx="0" cy="0" r="1" gradientUnits="userSpaceOnUse" gradientTransform="translate(112.088 43) rotate(43.5624) scale(11.6086 40.5206)">
<stop/>
<stop offset="0.82" stop-color="#FEAAAA"/>
</radialGradient>
</defs>
</svg>
