<svg width="106" height="46" viewBox="0 0 106 46" fill="none" xmlns="http://www.w3.org/2000/svg">
<g filter="url(#filter0_d_158_8)">
<path d="M5.80625 30.1C6.33958 32 7.33958 33.45 8.80625 34.45C10.3063 35.4167 12.2229 35.9 14.5563 35.9C16.6896 35.9 18.4396 35.3833 19.8063 34.35C21.1729 33.3167 21.8563 31.95 21.8563 30.25C21.8563 28.85 21.4063 27.7667 20.5063 27C19.6063 26.2 18.2729 25.6833 16.5063 25.45L11.6563 24.85C9.58958 24.5833 7.93958 23.9333 6.70625 22.9C5.50625 21.8333 4.90625 20.3833 4.90625 18.55C4.90625 17.2167 5.27292 16.0167 6.00625 14.95C6.77292 13.85 7.82292 12.9833 9.15625 12.35C10.5229 11.7167 12.0396 11.4 13.7063 11.4C15.3063 11.4 16.7563 11.6833 18.0563 12.25C19.3896 12.8167 20.4729 13.6167 21.3063 14.65C22.1396 15.6833 22.6396 16.8667 22.8063 18.2H21.2063C20.8729 16.6 20.0396 15.3167 18.7063 14.35C17.4063 13.3833 15.7396 12.9 13.7063 12.9C11.5729 12.9 9.83958 13.4333 8.50625 14.5C7.20625 15.5333 6.55625 16.85 6.55625 18.45C6.55625 19.8167 7.02292 20.9167 7.95625 21.75C8.92292 22.55 10.2396 23.0667 11.9063 23.3L16.8563 23.95C18.9896 24.2167 20.6229 24.8667 21.7563 25.9C22.9229 26.9333 23.5063 28.35 23.5063 30.15C23.5063 31.5833 23.1063 32.85 22.3063 33.95C21.5396 35.05 20.4729 35.9 19.1063 36.5C17.7396 37.1 16.2396 37.4 14.6063 37.4C12.8396 37.4 11.2396 37.15 9.80625 36.65C8.37292 36.1167 7.15625 35.3 6.15625 34.2C5.18958 33.1 4.53958 31.7333 4.20625 30.1H5.80625ZM30.1715 0.649997H31.8215V37H30.1715V0.649997ZM48.4215 11.8L33.2715 23.85V23.3L48.7215 37H46.4215L31.1715 23.6L46.1215 11.8H48.4215ZM53.902 37V11.8H55.552V37H53.902ZM54.702 2.65C55.1686 2.65 55.552 2.81666 55.852 3.15C56.152 3.45 56.302 3.83333 56.302 4.3C56.302 4.73333 56.152 5.11666 55.852 5.45C55.552 5.75 55.1686 5.9 54.702 5.9C54.2353 5.9 53.852 5.75 53.552 5.45C53.252 5.11666 53.102 4.73333 53.102 4.3C53.102 3.83333 53.252 3.45 53.552 3.15C53.852 2.81666 54.2353 2.65 54.702 2.65ZM63.8629 37V0.649997H65.5129V37H63.8629ZM73.8238 37V0.649997H75.4738V37H73.8238ZM83.7848 30.1C84.3181 32 85.3181 33.45 86.7848 34.45C88.2848 35.4167 90.2014 35.9 92.5348 35.9C94.6681 35.9 96.4181 35.3833 97.7848 34.35C99.1514 33.3167 99.8348 31.95 99.8348 30.25C99.8348 28.85 99.3848 27.7667 98.4848 27C97.5848 26.2 96.2514 25.6833 94.4848 25.45L89.6348 24.85C87.5681 24.5833 85.9181 23.9333 84.6848 22.9C83.4848 21.8333 82.8848 20.3833 82.8848 18.55C82.8848 17.2167 83.2514 16.0167 83.9848 14.95C84.7514 13.85 85.8014 12.9833 87.1348 12.35C88.5014 11.7167 90.0181 11.4 91.6848 11.4C93.2848 11.4 94.7348 11.6833 96.0348 12.25C97.3681 12.8167 98.4514 13.6167 99.2848 14.65C100.118 15.6833 100.618 16.8667 100.785 18.2H99.1848C98.8514 16.6 98.0181 15.3167 96.6848 14.35C95.3848 13.3833 93.7181 12.9 91.6848 12.9C89.5514 12.9 87.8181 13.4333 86.4848 14.5C85.1848 15.5333 84.5348 16.85 84.5348 18.45C84.5348 19.8167 85.0014 20.9167 85.9348 21.75C86.9014 22.55 88.2181 23.0667 89.8848 23.3L94.8348 23.95C96.9681 24.2167 98.6014 24.8667 99.7348 25.9C100.901 26.9333 101.485 28.35 101.485 30.15C101.485 31.5833 101.085 32.85 100.285 33.95C99.5181 35.05 98.4514 35.9 97.0848 36.5C95.7181 37.1 94.2181 37.4 92.5848 37.4C90.8181 37.4 89.2181 37.15 87.7848 36.65C86.3514 36.1167 85.1348 35.3 84.1348 34.2C83.1681 33.1 82.5181 31.7333 82.1848 30.1H83.7848Z" fill="url(#paint0_angular_158_8)"/>
</g>
<defs>
<filter id="filter0_d_158_8" x="0.206299" y="0.650391" width="105.279" height="44.75" filterUnits="userSpaceOnUse" color-interpolation-filters="sRGB">
<feFlood flood-opacity="0" result="BackgroundImageFix"/>
<feColorMatrix in="SourceAlpha" type="matrix" values="0 0 0 0 0 0 0 0 0 0 0 0 0 0 0 0 0 0 127 0" result="hardAlpha"/>
<feOffset dy="4"/>
<feGaussianBlur stdDeviation="2"/>
<feComposite in2="hardAlpha" operator="out"/>
<feColorMatrix type="matrix" values="0 0 0 0 0 0 0 0 0 0 0 0 0 0 0 0 0 0 0.25 0"/>
<feBlend mode="normal" in2="BackgroundImageFix" result="effect1_dropShadow_158_8"/>
<feBlend mode="normal" in="SourceGraphic" in2="effect1_dropShadow_158_8" result="shape"/>
</filter>
<radialGradient id="paint0_angular_158_8" cx="0" cy="0" r="1" gradientUnits="userSpaceOnUse" gradientTransform="translate(48.9049 43) rotate(65.8014) scale(8.77068 22.9215)">
<stop/>
<stop offset="0.82" stop-color="#FEAAAA"/>
</radialGradient>
</defs>
</svg>
