<svg width="127" height="46" viewBox="0 0 127 46" fill="none" xmlns="http://www.w3.org/2000/svg">
<g filter="url(#filter0_d_158_9)">
<path d="M5.75938 30.1C6.29271 32 7.29271 33.45 8.75938 34.45C10.2594 35.4167 12.176 35.9 14.5094 35.9C16.6427 35.9 18.3927 35.3833 19.7594 34.35C21.126 33.3167 21.8094 31.95 21.8094 30.25C21.8094 28.85 21.3594 27.7667 20.4594 27C19.5594 26.2 18.226 25.6833 16.4594 25.45L11.6094 24.85C9.54271 24.5833 7.89271 23.9333 6.65938 22.9C5.45938 21.8333 4.85938 20.3833 4.85938 18.55C4.85938 17.2167 5.22604 16.0167 5.95938 14.95C6.72604 13.85 7.77604 12.9833 9.10938 12.35C10.476 11.7167 11.9927 11.4 13.6594 11.4C15.2594 11.4 16.7094 11.6833 18.0094 12.25C19.3427 12.8167 20.426 13.6167 21.2594 14.65C22.0927 15.6833 22.5927 16.8667 22.7594 18.2H21.1594C20.826 16.6 19.9927 15.3167 18.6594 14.35C17.3594 13.3833 15.6927 12.9 13.6594 12.9C11.526 12.9 9.79271 13.4333 8.45938 14.5C7.15938 15.5333 6.50938 16.85 6.50938 18.45C6.50938 19.8167 6.97604 20.9167 7.90938 21.75C8.87604 22.55 10.1927 23.0667 11.8594 23.3L16.8094 23.95C18.9427 24.2167 20.576 24.8667 21.7094 25.9C22.876 26.9333 23.4594 28.35 23.4594 30.15C23.4594 31.5833 23.0594 32.85 22.2594 33.95C21.4927 35.05 20.426 35.9 19.0594 36.5C17.6927 37.1 16.1927 37.4 14.5594 37.4C12.7927 37.4 11.1927 37.15 9.75938 36.65C8.32604 36.1167 7.10938 35.3 6.10938 34.2C5.14271 33.1 4.49271 31.7333 4.15938 30.1H5.75938ZM40.1246 11.4C42.3579 11.4 44.3413 11.95 46.0746 13.05C47.8413 14.1167 49.1913 15.6333 50.1246 17.6C51.0913 19.5667 51.5746 21.8333 51.5746 24.4C51.5746 26.9667 51.0913 29.2333 50.1246 31.2C49.1913 33.1667 47.8413 34.7 46.0746 35.8C44.3413 36.8667 42.3579 37.4 40.1246 37.4C37.8913 37.4 35.8913 36.8667 34.1246 35.8C32.3913 34.7 31.0413 33.1667 30.0746 31.2C29.1079 29.2333 28.6246 26.9667 28.6246 24.4C28.6246 21.8333 29.1079 19.5667 30.0746 17.6C31.0413 15.6333 32.3913 14.1167 34.1246 13.05C35.8913 11.95 37.8913 11.4 40.1246 11.4ZM40.1246 35.9C42.0579 35.9 43.7579 35.4333 45.2246 34.5C46.7246 33.5333 47.8746 32.1833 48.6746 30.45C49.5079 28.7167 49.9246 26.7 49.9246 24.4C49.9246 22.1 49.5079 20.0833 48.6746 18.35C47.8746 16.6167 46.7246 15.2833 45.2246 14.35C43.7579 13.3833 42.0579 12.9 40.1246 12.9C38.1913 12.9 36.4746 13.3833 34.9746 14.35C33.5079 15.2833 32.3579 16.6167 31.5246 18.35C30.6913 20.0833 30.2746 22.1 30.2746 24.4C30.2746 26.7 30.6913 28.7167 31.5246 30.45C32.3579 32.1833 33.5079 33.5333 34.9746 34.5C36.4746 35.4333 38.1913 35.9 40.1246 35.9ZM68.2461 35.9C69.9461 35.9 71.3961 35.5833 72.5961 34.95C73.8294 34.2833 74.7961 33.45 75.4961 32.45C76.2294 31.45 76.7294 30.4 76.9961 29.3H78.5961C78.3628 30.7333 77.7961 32.0667 76.8961 33.3C75.9961 34.5333 74.7961 35.5333 73.2961 36.3C71.8294 37.0333 70.1461 37.4 68.2461 37.4C66.2128 37.4 64.3294 36.8833 62.5961 35.85C60.8628 34.8167 59.4794 33.3167 58.4461 31.35C57.4128 29.3833 56.8961 27.0667 56.8961 24.4C56.8961 21.7333 57.3961 19.4167 58.3961 17.45C59.4294 15.4833 60.7961 13.9833 62.4961 12.95C64.2294 11.9167 66.1461 11.4 68.2461 11.4C70.0461 11.4 71.6794 11.75 73.1461 12.45C74.6128 13.15 75.7961 14.1167 76.6961 15.35C77.6294 16.55 78.2628 17.8833 78.5961 19.35H76.9961C76.4628 17.4833 75.4294 15.95 73.8961 14.75C72.3961 13.5167 70.5128 12.9 68.2461 12.9C66.4461 12.9 64.8128 13.3667 63.3461 14.3C61.8794 15.2333 60.7128 16.5667 59.8461 18.3C58.9794 20.0333 58.5461 22.0667 58.5461 24.4C58.5461 26.8 58.9794 28.8667 59.8461 30.6C60.7461 32.3 61.9294 33.6167 63.3961 34.55C64.8628 35.45 66.4794 35.9 68.2461 35.9ZM85.1539 37V11.8H86.8039V37H85.1539ZM85.9539 2.65C86.4206 2.65 86.8039 2.81666 87.1039 3.15C87.4039 3.45 87.5539 3.83333 87.5539 4.3C87.5539 4.73333 87.4039 5.11666 87.1039 5.45C86.8039 5.75 86.4206 5.9 85.9539 5.9C85.4872 5.9 85.1039 5.75 84.8039 5.45C84.5039 5.11666 84.3539 4.73333 84.3539 4.3C84.3539 3.83333 84.5039 3.45 84.8039 3.15C85.1039 2.81666 85.4872 2.65 85.9539 2.65ZM111.515 20.05C111.515 18.5167 111.198 17.2167 110.565 16.15C109.965 15.05 109.098 14.2333 107.965 13.7C106.832 13.1667 105.515 12.9 104.015 12.9C101.982 12.9 100.282 13.3667 98.9148 14.3C97.5482 15.2333 96.6315 16.4833 96.1648 18.05H94.5148C95.0482 16.05 96.1648 14.45 97.8648 13.25C99.5648 12.0167 101.615 11.4 104.015 11.4C105.848 11.4 107.448 11.7333 108.815 12.4C110.182 13.0333 111.232 14.0167 111.965 15.35C112.732 16.65 113.115 18.2167 113.115 20.05V37H111.615V31.55L111.865 31.9C111.065 33.5667 109.798 34.9 108.065 35.9C106.332 36.9 104.298 37.4 101.965 37.4C100.398 37.4 98.9648 37.1167 97.6648 36.55C96.3982 35.95 95.3815 35.1 94.6148 34C93.8815 32.9 93.5148 31.6167 93.5148 30.15C93.5148 27.9167 94.3482 26.15 96.0148 24.85C97.7148 23.5167 100.082 22.85 103.115 22.85H112.265V24.35H103.165C100.598 24.35 98.6148 24.8667 97.2148 25.9C95.8482 26.9 95.1648 28.3167 95.1648 30.15C95.1648 31.8833 95.8148 33.2833 97.1148 34.35C98.4148 35.3833 100.082 35.9 102.115 35.9C103.948 35.9 105.582 35.5667 107.015 34.9C108.448 34.2 109.548 33.2333 110.315 32C111.115 30.7667 111.515 29.3833 111.515 27.85V20.05ZM121.189 37V0.649997H122.839V37H121.189Z" fill="url(#paint0_angular_158_9)"/>
</g>
<defs>
<filter id="filter0_d_158_9" x="0.159424" y="0.650391" width="126.68" height="44.75" filterUnits="userSpaceOnUse" color-interpolation-filters="sRGB">
<feFlood flood-opacity="0" result="BackgroundImageFix"/>
<feColorMatrix in="SourceAlpha" type="matrix" values="0 0 0 0 0 0 0 0 0 0 0 0 0 0 0 0 0 0 127 0" result="hardAlpha"/>
<feOffset dy="4"/>
<feGaussianBlur stdDeviation="2"/>
<feComposite in2="hardAlpha" operator="out"/>
<feColorMatrix type="matrix" values="0 0 0 0 0 0 0 0 0 0 0 0 0 0 0 0 0 0 0.25 0"/>
<feBlend mode="normal" in2="BackgroundImageFix" result="effect1_dropShadow_158_9"/>
<feBlend mode="normal" in="SourceGraphic" in2="effect1_dropShadow_158_9" result="shape"/>
</filter>
<radialGradient id="paint0_angular_158_9" cx="0" cy="0" r="1" gradientUnits="userSpaceOnUse" gradientTransform="translate(59.6021 43) rotate(61.2007) scale(9.12916 26.9388)">
<stop/>
<stop offset="0.82" stop-color="#FEAAAA"/>
</radialGradient>
</defs>
</svg>
